<?xml version="1.0" encoding="UTF-8" standalone="no"?>
<svg
   xmlns:dc="http://purl.org/dc/elements/1.1/"
   xmlns:cc="http://creativecommons.org/ns#"
   xmlns:rdf="http://www.w3.org/1999/02/22-rdf-syntax-ns#"
   xmlns:svg="http://www.w3.org/2000/svg"
   xmlns="http://www.w3.org/2000/svg"
   viewBox="0 0 793.70135 1122.52"
   height="1122.52"
   width="793.70135"
   xml:space="preserve"
   id="svg2"
   version="1.1"><metadata
     id="metadata8"><rdf:RDF><cc:Work
         rdf:about=""><dc:format>image/svg+xml</dc:format><dc:type
           rdf:resource="http://purl.org/dc/dcmitype/StillImage" /></cc:Work></rdf:RDF></metadata><defs
     id="defs6"><clipPath
       id="clipPath32"
       clipPathUnits="userSpaceOnUse"><path
         id="path30"
         d="M 0,841.89 H 595.276 V 0 H 0 Z" /></clipPath></defs><g
     transform="matrix(1.3333333,0,0,-1.3333333,0,1122.52)"
     id="g10"><g
       transform="translate(197.5068,604.9874)"
       id="g12"><path
         id="path14"
         style="fill:#bf935b;fill-opacity:1;fill-rule:nonzero;stroke:none"
         d="M 0,0 H -5.991 V 50.059 H -16.08 V 0 h -5.991 V 51.955 H 0 Z" /></g><g
       transform="translate(227.1625,604.9874)"
       id="g16"><path
         id="path18"
         style="fill:#bf935b;fill-opacity:1;fill-rule:nonzero;stroke:none"
         d="M 0,0 H -5.992 V 32.704 L -16.08,19.935 V 0 h -5.992 v 51.955 h 5.992 V 24.119 L -5.992,37.013 V 51.955 H 0 Z" /></g><g
       transform="translate(263.4927,638.9669)"
       id="g20"><path
         id="path22"
         style="fill:#bf935b;fill-opacity:1;fill-rule:nonzero;stroke:none"
         d="m 0,0 -5.764,6.173 v 9.907 h -6.22 v -50.059 h -6.143 V 16.08 h -6.296 V 0.021 l -5.84,-6.165 v 24.12 H 0 Z" /></g><path
       id="path24"
       style="fill:#bf935b;fill-opacity:1;fill-rule:nonzero;stroke:none"
       d="m 284.961,624.093 h -15.4 v 6.052 h 15.4 z" /><g
       id="g26"><g
         clip-path="url(#clipPath32)"
         id="g28"><g
           transform="translate(316.9641,613.0273)"
           id="g34"><path
             id="path36"
             style="fill:#bf935b;fill-opacity:1;fill-rule:nonzero;stroke:none"
             d="m 0,0 c -1.82,-3.792 -4.399,-6.473 -7.736,-8.04 -0.607,-0.201 -1.517,-0.632 -2.731,-1.289 -0.303,0.304 -1.251,0.685 -2.844,1.139 -1.593,0.455 -2.567,0.81 -2.92,1.064 -2.782,2.075 -4.905,6.303 -6.371,12.684 -1.113,4.76 -1.669,9.595 -1.669,14.507 0,5.165 0.581,9.723 1.745,13.673 1.617,5.67 4.272,9.063 7.964,10.177 h 2.275 c 0.404,0 1.011,0.455 1.82,1.366 0.859,-0.911 1.466,-1.366 1.821,-1.366 h 2.275 c 3.034,-1.163 4.854,-5.183 5.461,-12.059 h -5.916 c -0.304,3.034 -0.531,4.854 -0.683,5.461 -0.556,2.275 -1.542,3.792 -2.958,4.55 -2.984,-1.215 -5.183,-4.406 -6.599,-9.572 -1.012,-3.697 -1.492,-7.748 -1.441,-12.154 0.051,-4.71 0.657,-9.421 1.821,-14.13 1.466,-6.128 3.539,-10.256 6.219,-12.382 2.427,1.921 3.868,4.045 4.323,6.371 z" /></g><g
           transform="translate(351.6252,638.9669)"
           id="g38"><path
             id="path40"
             style="fill:#bf935b;fill-opacity:1;fill-rule:nonzero;stroke:none"
             d="m 0,0 -5.764,6.173 v 9.907 h -6.22 v -50.059 h -6.143 V 16.08 h -6.295 V 0.021 l -5.84,-6.165 v 24.12 H 0 Z" /></g><g
           transform="translate(415.2122,604.9874)"
           id="g42"><path
             id="path44"
             style="fill:#bf935b;fill-opacity:1;fill-rule:nonzero;stroke:none"
             d="M 0,0 H -5.992 V 50.059 H -16.08 V 0 h -5.992 V 51.955 H 0 Z" /></g><g
           transform="translate(171.7191,554.9025)"
           id="g46"><path
             id="path48"
             style="fill:#bf935b;fill-opacity:1;fill-rule:nonzero;stroke:none"
             d="M 0,0 V -12.744 H 3.71 L 13.21,0 h 2.117 L 5.284,-13.502 16.882,-27.197 H 14.725 L 3.768,-14.317 H 0 v -12.88 h -1.788 l 0,27.197 z" /></g><g
           transform="translate(208.9015,533.3778)"
           id="g50"><path
             id="path52"
             style="fill:#bf935b;fill-opacity:1;fill-rule:nonzero;stroke:none"
             d="m 0,0 v 8.781 c -0.868,1.424 -1.959,2.541 -3.274,3.351 -1.314,0.809 -2.794,1.214 -4.438,1.214 -2.448,0 -4.514,-0.884 -6.197,-2.652 -1.684,-1.767 -2.526,-3.869 -2.526,-6.303 0,-2.436 0.842,-4.537 2.526,-6.305 1.683,-1.767 3.749,-2.651 6.197,-2.651 1.644,0 3.124,0.404 4.438,1.214 C -1.959,-2.542 -0.868,-1.425 0,0 m -7.907,14.92 c 1.606,0 3.095,-0.347 4.468,-1.04 C -2.066,13.187 -0.92,12.226 0,10.996 v 3.457 H 1.748 V -5.673 H 0 v 3.458 c -0.92,-1.23 -2.066,-2.192 -3.439,-2.884 -1.373,-0.693 -2.862,-1.04 -4.468,-1.04 -1.929,0 -3.688,0.483 -5.274,1.448 -1.586,0.964 -2.82,2.25 -3.701,3.856 -0.881,1.605 -1.321,3.347 -1.321,5.226 0,1.877 0.44,3.619 1.321,5.225 0.881,1.606 2.115,2.891 3.701,3.856 1.586,0.965 3.345,1.448 5.274,1.448" /></g><g
           transform="translate(218.5368,542.1587)"
           id="g54"><path
             id="path56"
             style="fill:#bf935b;fill-opacity:1;fill-rule:nonzero;stroke:none"
             d="m 0,0 v -8.781 c 0.868,-1.425 1.959,-2.542 3.274,-3.351 1.314,-0.81 2.793,-1.214 4.438,-1.214 2.448,0 4.514,0.884 6.197,2.652 1.684,1.767 2.526,3.869 2.526,6.304 0,2.434 -0.842,4.536 -2.526,6.304 C 12.226,3.681 10.16,4.565 7.712,4.565 6.067,4.565 4.588,4.16 3.274,3.351 1.959,2.542 0.868,1.424 0,0 m 7.907,6.139 c 1.929,0 3.687,-0.483 5.274,-1.447 1.586,-0.965 2.82,-2.251 3.701,-3.857 0.88,-1.606 1.321,-3.348 1.321,-5.225 0,-1.878 -0.441,-3.62 -1.321,-5.226 -0.881,-1.606 -2.115,-2.892 -3.701,-3.856 -1.587,-0.965 -3.345,-1.448 -5.274,-1.448 -1.606,0 -3.096,0.347 -4.468,1.04 -1.373,0.692 -2.52,1.654 -3.439,2.885 V -23.467 H -1.748 V 5.673 H 0 V 2.215 c 0.919,1.23 2.066,2.191 3.439,2.884 1.372,0.693 2.862,1.04 4.468,1.04" /></g><g
           transform="translate(258.0892,533.3778)"
           id="g58"><path
             id="path60"
             style="fill:#bf935b;fill-opacity:1;fill-rule:nonzero;stroke:none"
             d="m 0,0 v 8.781 c -0.868,1.424 -1.959,2.541 -3.274,3.351 -1.314,0.809 -2.794,1.214 -4.438,1.214 -2.448,0 -4.514,-0.884 -6.197,-2.652 -1.684,-1.767 -2.526,-3.869 -2.526,-6.303 0,-2.436 0.842,-4.537 2.526,-6.305 1.683,-1.767 3.749,-2.651 6.197,-2.651 1.644,0 3.124,0.404 4.438,1.214 C -1.959,-2.542 -0.868,-1.425 0,0 m -7.907,14.92 c 1.606,0 3.095,-0.347 4.468,-1.04 C -2.066,13.187 -0.92,12.226 0,10.996 v 3.457 H 1.748 V -5.673 H 0 v 3.458 c -0.92,-1.23 -2.066,-2.192 -3.439,-2.884 -1.373,-0.693 -2.862,-1.04 -4.468,-1.04 -1.929,0 -3.688,0.483 -5.274,1.448 -1.586,0.964 -2.82,2.25 -3.701,3.856 -0.881,1.605 -1.321,3.347 -1.321,5.226 0,1.877 0.44,3.619 1.321,5.225 0.881,1.606 2.115,2.891 3.701,3.856 1.586,0.965 3.345,1.448 5.274,1.448" /></g><g
           transform="translate(268.7736,531.4643)"
           id="g62"><path
             id="path64"
             style="fill:#bf935b;fill-opacity:1;fill-rule:nonzero;stroke:none"
             d="m 0,0 c 1.684,-1.768 3.749,-2.652 6.197,-2.652 2.448,0 4.513,0.884 6.197,2.652 1.683,1.768 2.526,3.869 2.526,6.304 0,2.435 -0.843,4.536 -2.526,6.304 C 10.71,14.376 8.645,15.26 6.197,15.26 3.749,15.26 1.684,14.376 0,12.608 -1.684,10.84 -2.525,8.739 -2.525,6.304 -2.525,3.869 -1.684,1.768 0,0 m 0.826,15.396 c 1.612,0.958 3.402,1.437 5.371,1.437 1.968,0 3.759,-0.479 5.371,-1.437 1.613,-0.959 2.869,-2.244 3.769,-3.857 0.9,-1.612 1.351,-3.357 1.351,-5.235 0,-1.878 -0.451,-3.623 -1.351,-5.236 -0.9,-1.612 -2.156,-2.897 -3.769,-3.856 -1.612,-0.958 -3.403,-1.437 -5.371,-1.437 -1.969,0 -3.759,0.479 -5.371,1.437 -1.613,0.959 -2.869,2.244 -3.769,3.856 -0.9,1.613 -1.35,3.358 -1.35,5.236 0,1.878 0.45,3.623 1.35,5.235 0.9,1.613 2.156,2.898 3.769,3.857" /></g><g
           transform="translate(303.9935,527.7053)"
           id="g66"><path
             id="path68"
             style="fill:#bf935b;fill-opacity:1;fill-rule:nonzero;stroke:none"
             d="m 0,0 -8.489,10.121 h -3.653 V 0 h -1.748 v 20.126 h 1.748 v -8.47 h 3.672 l 7.382,8.47 H 1.088 L -6.955,10.898 2.137,0 Z" /></g><g
           transform="translate(317.844,546.7628)"
           id="g70"><path
             id="path72"
             style="fill:#bf935b;fill-opacity:1;fill-rule:nonzero;stroke:none"
             d="m 0,0 c -2.201,0 -4.099,-0.774 -5.691,-2.321 -1.594,-1.548 -2.5,-3.423 -2.72,-5.625 H 8.062 C 7.907,-5.653 7.078,-3.756 5.575,-2.254 4.073,-0.751 2.215,0 0,0 m -8.47,-9.441 c 0.078,-2.383 0.933,-4.404 2.564,-6.061 1.633,-1.658 3.679,-2.487 6.139,-2.487 1.386,0 2.688,0.304 3.905,0.913 1.218,0.609 2.267,1.457 3.147,2.545 l 1.224,-1.146 c -0.958,-1.192 -2.156,-2.131 -3.594,-2.817 -1.438,-0.686 -2.991,-1.03 -4.662,-1.03 -2.033,0 -3.856,0.476 -5.469,1.428 -1.612,0.952 -2.855,2.227 -3.73,3.827 -0.874,1.6 -1.311,3.358 -1.311,5.274 0,1.904 0.437,3.659 1.311,5.265 0.875,1.606 2.102,2.885 3.682,3.837 1.579,0.952 3.335,1.428 5.264,1.428 1.878,0 3.575,-0.447 5.09,-1.341 1.516,-0.893 2.69,-2.098 3.526,-3.613 0.835,-1.515 1.253,-3.186 1.253,-5.012 0,-0.376 -0.033,-0.713 -0.097,-1.01 z" /></g><g
           transform="translate(344.3413,538.9339)"
           id="g74"><path
             id="path76"
             style="fill:#bf935b;fill-opacity:1;fill-rule:nonzero;stroke:none"
             d="m 0,0 v -0.777 c 0,-2.746 0.719,-4.99 2.156,-6.731 1.438,-1.742 3.393,-2.613 5.867,-2.613 2.254,0 4.154,0.738 5.702,2.214 1.548,1.477 2.322,3.29 2.322,5.44 0,2.149 -0.758,3.963 -2.273,5.439 C 12.258,4.449 10.406,5.187 8.217,5.187 6.508,5.187 4.961,4.721 3.575,3.788 2.189,2.856 0.997,1.593 0,0 m -1.768,-0.777 c 0,2.085 0.098,3.917 0.292,5.498 0.194,1.58 0.518,3.03 0.971,4.351 0.453,1.321 1.046,2.438 1.777,3.351 0.732,0.913 1.652,1.703 2.759,2.37 1.107,0.667 2.393,1.188 3.856,1.564 1.464,0.376 3.167,0.635 5.11,0.777 L 13.23,15.561 C 11.197,15.392 9.454,15.094 8.004,14.667 6.554,14.24 5.336,13.689 4.351,13.016 3.367,12.342 2.577,11.471 1.981,10.403 1.386,9.334 0.942,8.152 0.651,6.858 0.36,5.562 0.169,4.002 0.078,2.176 c 0.919,1.372 2.095,2.48 3.526,3.322 1.43,0.841 3.027,1.262 4.788,1.262 1.736,0 3.325,-0.408 4.77,-1.223 1.444,-0.816 2.58,-1.93 3.409,-3.342 0.829,-1.412 1.244,-2.966 1.244,-4.662 0,-1.282 -0.25,-2.494 -0.749,-3.633 -0.498,-1.14 -1.181,-2.117 -2.049,-2.933 -0.868,-0.816 -1.907,-1.464 -3.118,-1.943 -1.211,-0.479 -2.503,-0.719 -3.876,-0.719 -2.901,0 -5.258,1.01 -7.071,3.031 -1.813,2.02 -2.72,4.649 -2.72,7.887" /></g><g
           transform="translate(383.5051,533.3778)"
           id="g78"><path
             id="path80"
             style="fill:#bf935b;fill-opacity:1;fill-rule:nonzero;stroke:none"
             d="m 0,0 v 8.781 c -0.868,1.424 -1.959,2.541 -3.274,3.351 -1.314,0.809 -2.794,1.214 -4.438,1.214 -2.448,0 -4.514,-0.884 -6.198,-2.652 -1.683,-1.767 -2.525,-3.869 -2.525,-6.303 0,-2.436 0.842,-4.537 2.525,-6.305 1.684,-1.767 3.75,-2.651 6.198,-2.651 1.644,0 3.124,0.404 4.438,1.214 C -1.959,-2.542 -0.868,-1.425 0,0 m -7.907,14.92 c 1.606,0 3.095,-0.347 4.468,-1.04 C -2.066,13.187 -0.92,12.226 0,10.996 v 3.457 H 1.748 V -5.673 H 0 v 3.458 c -0.92,-1.23 -2.066,-2.192 -3.439,-2.884 -1.373,-0.693 -2.862,-1.04 -4.468,-1.04 -1.929,0 -3.688,0.483 -5.274,1.448 -1.586,0.964 -2.82,2.25 -3.701,3.856 -0.881,1.605 -1.321,3.347 -1.321,5.226 0,1.877 0.44,3.619 1.321,5.225 0.881,1.606 2.115,2.891 3.701,3.856 1.586,0.965 3.345,1.448 5.274,1.448" /></g><g
           transform="translate(393.1404,542.1587)"
           id="g82"><path
             id="path84"
             style="fill:#bf935b;fill-opacity:1;fill-rule:nonzero;stroke:none"
             d="m 0,0 v -8.781 c 0.868,-1.425 1.959,-2.542 3.274,-3.351 1.314,-0.81 2.793,-1.214 4.438,-1.214 2.448,0 4.514,0.884 6.197,2.652 1.684,1.767 2.526,3.869 2.526,6.304 0,2.434 -0.842,4.536 -2.526,6.304 C 12.226,3.681 10.16,4.565 7.712,4.565 6.067,4.565 4.588,4.16 3.274,3.351 1.959,2.542 0.868,1.424 0,0 m 7.907,6.139 c 1.929,0 3.687,-0.483 5.274,-1.447 1.586,-0.965 2.82,-2.251 3.701,-3.857 0.88,-1.606 1.321,-3.348 1.321,-5.225 0,-1.878 -0.441,-3.62 -1.321,-5.226 -0.881,-1.606 -2.115,-2.892 -3.701,-3.856 -1.587,-0.965 -3.345,-1.448 -5.274,-1.448 -1.606,0 -3.096,0.347 -4.468,1.04 -1.373,0.692 -2.52,1.654 -3.439,2.885 V -23.467 H -1.748 V 5.673 H 0 V 2.215 c 0.919,1.23 2.066,2.191 3.439,2.884 1.372,0.693 2.862,1.04 4.468,1.04" /></g><g
           transform="translate(369.828,604.9874)"
           id="g86"><path
             id="path88"
             style="fill:#bf935b;fill-opacity:1;fill-rule:nonzero;stroke:none"
             d="m 0,0 c 7.207,0 13.049,5.842 13.049,13.049 v 25.857 c 0,7.207 -5.842,13.049 -13.049,13.049 -7.207,0 -13.049,-5.842 -13.049,-13.049 V 13.049 C -13.049,5.842 -7.207,0 0,0" /></g><g
           transform="translate(391.2779,617.8969)"
           id="g90"><path
             id="path92"
             style="fill:#bf935b;fill-opacity:1;fill-rule:nonzero;stroke:none"
             d="m 0,0 c 0.006,0.972 -0.777,1.764 -1.748,1.771 -0.003,0 -0.008,0 -0.011,0 -0.967,0 -1.753,-0.781 -1.76,-1.748 -0.063,-9.828 -8.107,-17.822 -17.93,-17.822 -9.824,0 -17.869,7.994 -17.932,17.822 -0.006,0.971 -0.766,1.781 -1.771,1.748 C -42.123,1.764 -42.906,0.972 -42.9,0 c 0.072,-11.161 8.756,-20.329 19.691,-21.229 v -5.678 h -7.07 c -1.794,0 -3.248,-1.454 -3.248,-3.249 v -1.219 h 24.155 v 1.219 c 0,1.795 -1.455,3.249 -3.249,3.249 h -7.069 v 5.678 C -8.755,-20.329 -0.072,-11.161 0,0" /></g><g
           transform="translate(298.538,575.9658)"
           id="g94"><path
             id="path96"
             style="fill:#bf935b;fill-opacity:1;fill-rule:nonzero;stroke:none"
             d="m 0,0 c 0,-4.363 -3.537,-7.901 -7.901,-7.901 -4.363,0 -7.9,3.538 -7.9,7.901 0,4.363 3.537,7.901 7.9,7.901 C -3.537,7.901 0,4.363 0,0" /></g><g
           transform="translate(218.4106,672.2629)"
           id="g98"><path
             id="path100"
             style="fill:#bf935b;fill-opacity:1;fill-rule:nonzero;stroke:none"
             d="M 0,0 -111.213,3.519 0,7.037 Z" /></g><g
           transform="translate(362.864,679.3002)"
           id="g102"><path
             id="path104"
             style="fill:#bf935b;fill-opacity:1;fill-rule:nonzero;stroke:none"
             d="M 0,0 111.213,-3.519 0,-7.037 Z" /></g><g
           transform="translate(507.9697,575.9658)"
           id="g106"><path
             id="path108"
             style="fill:#bf935b;fill-opacity:1;fill-rule:nonzero;stroke:none"
             d="m 0,0 -203.204,3.414 c 0.265,-1.097 0.421,-2.237 0.421,-3.414 0,-1.178 -0.156,-2.317 -0.421,-3.414 z" /></g><g
           transform="translate(276.0876,575.9658)"
           id="g110"><path
             id="path112"
             style="fill:#bf935b;fill-opacity:1;fill-rule:nonzero;stroke:none"
             d="M 0,0 C 0,1.177 0.156,2.317 0.421,3.414 L -202.783,0 0.421,-3.414 C 0.156,-2.317 0,-1.178 0,0" /></g><g
           transform="translate(333.4777,686.5825)"
           id="g114"><path
             id="path116"
             style="fill:#bf935b;fill-opacity:1;fill-rule:nonzero;stroke:none"
             d="m 0,0 c -0.473,-0.104 -0.958,-0.164 -1.46,-0.09 0.026,0.076 0.032,0.121 0.043,0.122 C 0.794,0.276 2.65,1.275 4.296,2.72 4.344,2.763 4.405,2.791 4.463,2.823 4.316,2.264 3.806,2.009 3.412,1.704 2.397,0.915 1.278,0.28 0,0 m -1.897,1.524 c 0.038,0.118 0.117,0.224 0.209,0.394 0.337,-0.436 0.744,-0.409 1.161,-0.294 0.327,0.09 0.672,0.153 0.97,0.305 1.24,0.635 2.433,1.345 3.394,2.378 0.177,0.19 0.308,0.434 0.707,0.334 C 4.417,4.113 4.089,3.777 3.758,3.444 2.58,2.259 1.288,1.253 -0.378,0.852 -0.704,0.773 -1.051,0.73 -1.385,0.743 -1.932,0.766 -2.069,0.997 -1.897,1.524 M -2.076,3.655 C -2.599,4.532 -3.257,5.333 -3.734,6.231 -4.135,6.986 -4.375,7.83 -4.651,8.646 -4.738,8.902 -4.712,9.197 -4.752,9.637 -3.908,9.247 -3.618,8.599 -3.433,8.019 -2.917,6.396 -2.187,4.91 -1.115,3.589 -1.032,3.488 -0.968,3.371 -0.904,3.257 -0.88,3.214 -0.881,3.158 -0.871,3.107 -1.416,2.974 -1.778,3.157 -2.076,3.655 M 0.069,3.379 C 0.476,3.988 1.017,4.105 1.64,3.817 1.723,3.779 1.775,3.673 1.856,3.583 1.375,3.049 0.723,2.891 0.127,2.654 -0.23,2.512 -0.633,2.482 -1.018,2.419 -1.063,2.412 -1.126,2.51 -1.242,2.613 c 0.133,0.055 0.215,0.112 0.303,0.123 0.44,0.055 0.748,0.255 1.008,0.643 M -2.573,9.937 C -1.56,8.011 -0.306,6.251 1.122,4.507 0.725,4.371 0.431,4.27 0.069,4.146 -1.303,5.838 -2.326,7.7 -2.573,9.937 M -2.559,7.884 C -2.08,6.57 -1.283,5.43 -0.561,4.25 -0.436,4.044 -0.197,3.845 -0.444,3.568 -1.518,4.219 -3.155,7.614 -2.993,9.107 -2.849,8.699 -2.707,8.29 -2.559,7.884 M -3.075,3.49 c -0.681,1.062 -1.405,2.096 -2.061,3.172 -1.137,1.864 -2.236,3.75 -3.35,5.628 -0.052,0.088 -0.089,0.185 -0.147,0.307 2.773,0.538 5.036,2.036 7.261,3.654 0.148,-0.878 0.262,-1.72 0.435,-2.55 C -0.479,11.506 0.53,9.552 1.794,7.725 2.227,7.1 2.778,6.566 3.574,6.165 2.793,5.795 2.093,5.457 1.388,5.132 1.176,5.034 1,5.091 0.836,5.284 c -1.282,1.508 -2.402,3.12 -3.191,4.947 -0.134,0.31 -0.288,0.61 -0.441,0.932 C -2.912,11.149 -3.024,11.16 -3.112,11.119 -3.825,10.785 -4.528,10.429 -5.245,10.104 -5.553,9.965 -5.612,9.765 -5.516,9.474 -5.294,8.802 -5.127,8.107 -4.842,7.463 -4.205,6.018 -3.423,4.653 -2.364,3.464 -2.317,3.412 -2.303,3.33 -2.271,3.254 -2.626,3.09 -2.87,3.171 -3.075,3.49 m -3.366,4.482 c 0.303,-0.741 0.494,-1.422 0.845,-2.007 0.354,-0.589 0.867,-1.083 1.353,-1.671 -1.258,0.333 -2.42,2.25 -2.198,3.678 M -5.123,3.765 C -6.498,4.598 -7.232,5.84 -7.357,7.432 -7.378,7.698 -7.255,7.975 -7.199,8.247 -7.143,8.239 -7.086,8.23 -7.03,8.222 -6.974,6.154 -6.127,4.586 -4.155,3.691 -4.516,3.477 -4.841,3.594 -5.123,3.765 m -7.812,44.946 c -0.66,-0.113 -0.418,0.513 -0.689,0.738 0.55,0.147 0.55,0.147 0.689,-0.738 m 8.207,-17.379 c 0.053,-0.355 0.087,-0.583 0.135,-0.903 -0.454,-0.074 -0.88,-0.144 -1.371,-0.224 -0.087,0.297 -0.163,0.559 -0.263,0.901 0.512,0.077 0.966,0.146 1.499,0.226 m -6.98,14.258 c -0.301,0.096 -0.479,0.101 -0.515,0.175 -0.098,0.202 -0.146,0.431 -0.192,0.654 -0.006,0.03 0.108,0.11 0.174,0.121 0.062,0.011 0.176,-0.02 0.196,-0.065 0.102,-0.228 0.181,-0.466 0.337,-0.885 m -0.588,3.188 c -0.098,0.296 -0.185,0.56 -0.297,0.899 0.496,0.033 0.949,0.071 1.403,0.09 0.646,0.026 0.717,-0.056 0.759,-0.884 -0.61,-0.034 -1.22,-0.069 -1.865,-0.105 m 1.52,-5.808 c -0.004,-0.074 -0.114,-0.142 -0.176,-0.212 -0.127,0.143 -0.28,0.272 -0.371,0.436 -0.048,0.086 0.012,0.231 0.023,0.35 0.148,-0.04 0.296,-0.081 0.411,-0.112 0.058,-0.217 0.12,-0.342 0.113,-0.462 m -0.424,2.827 c -0.097,0.29 -0.185,0.554 -0.298,0.889 0.637,0.068 1.223,0.13 1.861,0.198 0.085,-0.323 0.155,-0.589 0.235,-0.896 -0.634,-0.067 -1.201,-0.128 -1.798,-0.191 m 1.466,-5.709 c 0.008,-0.106 -0.066,-0.218 -0.103,-0.327 -0.104,0.057 -0.232,0.093 -0.306,0.177 -0.083,0.094 -0.145,0.227 -0.165,0.351 -0.017,0.111 0.036,0.232 0.057,0.348 0.131,-0.043 0.262,-0.085 0.35,-0.114 0.078,-0.192 0.158,-0.311 0.167,-0.435 m -0.639,3.557 c 0.515,0.283 1.088,0.202 1.655,0.315 0.1,-0.296 0.18,-0.534 0.286,-0.846 -0.395,-0.047 -0.745,-0.088 -1.095,-0.13 -0.646,-0.078 -0.646,-0.078 -0.846,0.661 M -8.6,36.619 c -0.217,-0.132 -0.382,-0.131 -0.475,0.082 -0.061,0.139 -0.113,0.293 -0.116,0.442 -0.002,0.092 0.096,0.186 0.149,0.279 0.096,-0.055 0.244,-0.089 0.278,-0.17 0.083,-0.204 0.115,-0.43 0.164,-0.633 m -0.737,4.172 c 0.356,0.037 0.708,0.085 1.062,0.11 0.543,0.039 0.609,-0.009 0.764,-0.533 0.028,-0.094 0.015,-0.201 0.022,-0.323 -0.33,-0.038 -0.633,-0.078 -0.937,-0.107 -0.723,-0.069 -0.739,-0.053 -0.911,0.853 m 1.74,-7.331 c -0.026,-0.057 -0.173,-0.101 -0.251,-0.085 -0.165,0.035 -0.357,0.539 -0.285,0.714 0.017,0.042 0.072,0.068 0.109,0.1 0.051,0.004 0.108,0.025 0.149,0.009 0.189,-0.076 0.372,-0.53 0.278,-0.738 m -0.404,3.209 c -0.087,0.268 -0.173,0.529 -0.278,0.85 0.55,0.148 1.073,0.201 1.635,0.182 0.092,-0.279 0.179,-0.543 0.287,-0.871 -0.604,-0.059 -1.094,-0.107 -1.644,-0.161 m 1.524,-6.689 c -0.277,0.125 -0.498,0.156 -0.537,0.258 -0.077,0.198 -0.052,0.435 -0.069,0.657 0.112,-0.008 0.302,0.019 0.323,-0.029 0.103,-0.231 0.161,-0.482 0.283,-0.886 m -0.472,3.519 c -0.108,0.304 -0.184,0.52 -0.272,0.769 0.443,0.257 0.916,0.229 1.366,0.271 0.111,0.01 0.282,-0.115 0.346,-0.225 0.087,-0.148 0.096,-0.341 0.156,-0.585 -0.54,-0.078 -1.04,-0.15 -1.596,-0.23 m -2.3,-19.112 c -2.403,0.768 -4.487,2.041 -6.142,3.952 -0.528,0.61 -0.989,1.285 -1.303,2.054 -0.213,0.52 -0.515,0.611 -1.006,0.448 -0.694,-0.232 -0.84,-0.607 -0.497,-1.265 1.513,-2.902 3.914,-4.664 7.046,-5.488 0.203,-0.053 0.408,-0.1 0.612,-0.151 0.025,-0.006 0.048,-0.021 0.072,-0.031 -0.593,-0.3 -1.235,-0.407 -1.808,-0.249 -2.205,0.61 -4.123,1.703 -5.582,3.49 -0.528,0.647 -0.954,1.379 -1.399,2.089 -0.302,0.481 -0.456,0.579 -0.853,0.404 -0.437,-0.192 -0.539,-0.42 -0.363,-0.957 0.334,-1.022 0.953,-1.86 1.726,-2.594 1.026,-0.974 2.235,-1.642 3.549,-2.138 0.306,-0.115 0.612,-0.23 0.903,-0.402 -0.892,-0.108 -1.748,-0.07 -2.573,0.333 -1.432,0.699 -2.527,1.77 -3.428,3.053 -0.377,0.537 -0.681,1.125 -1.036,1.679 -0.263,0.41 -0.317,0.415 -0.835,0.254 -0.09,0.15 -0.215,0.294 -0.269,0.461 -0.33,1.019 -0.317,1.075 0.624,1.614 0.866,0.495 1.754,0.952 2.629,1.431 0.252,0.138 0.495,0.294 0.806,0.48 -0.253,0.777 -0.509,1.563 -0.787,2.417 -0.593,-0.283 -1.141,-0.521 -1.663,-0.808 -0.162,-0.089 -0.32,-0.295 -0.361,-0.474 -0.099,-0.441 -0.412,-0.589 -0.783,-0.672 -0.508,-0.114 -1.021,-0.205 -1.54,-0.307 -0.046,0.148 -0.083,0.3 -0.14,0.444 -0.109,0.274 -0.009,0.448 0.233,0.583 0.849,0.474 1.692,0.959 2.542,1.431 0.435,0.242 0.88,0.466 1.385,0.731 -0.233,0.714 -0.458,1.403 -0.692,2.12 -0.755,-0.232 -1.361,-0.703 -2.01,-1.091 -0.044,-0.026 -0.099,-0.065 -0.111,-0.108 -0.205,-0.754 -0.858,-0.84 -1.468,-0.997 -0.225,-0.059 -0.444,-0.145 -0.726,-0.238 -0.091,0.257 -0.181,0.511 -0.29,0.817 1.412,0.844 2.805,1.677 4.267,2.551 -0.201,0.649 -0.381,1.267 -0.588,1.876 -0.071,0.21 -0.281,0.254 -0.456,0.153 -0.593,-0.34 -1.172,-0.703 -1.756,-1.059 -0.022,-0.013 -0.046,-0.034 -0.054,-0.057 -0.36,-1.005 -1.318,-0.966 -2.134,-1.28 -0.096,0.267 -0.172,0.48 -0.254,0.708 1.058,1.002 2.378,1.572 3.495,2.373 -0.372,0.623 -0.716,1.198 -1.083,1.812 -0.582,-0.314 -1.207,-0.438 -1.318,-1.175 -0.035,-0.233 -0.208,-0.337 -0.433,-0.399 -0.427,-0.118 -0.847,-0.264 -1.265,-0.397 -0.418,0.7 -0.412,0.793 0.184,1.224 0.66,0.477 1.329,0.944 2.005,1.396 0.262,0.175 0.322,0.34 0.213,0.653 -0.188,0.541 -0.305,1.106 -0.467,1.715 -0.525,-0.236 -1.087,-0.368 -1.149,-1.098 -0.011,-0.131 -0.204,-0.306 -0.349,-0.357 -0.514,-0.178 -1.044,-0.311 -1.609,-0.473 -0.082,0.266 -0.149,0.482 -0.235,0.762 0.908,0.64 1.799,1.282 2.706,1.901 0.4,0.273 0.786,0.522 0.76,1.092 -0.007,0.148 0.054,0.32 0.135,0.449 0.331,0.526 0.158,0.992 -0.137,1.49 -0.657,-0.254 -1.204,-0.655 -1.724,-1.09 -0.131,-0.109 -0.245,-0.289 -0.279,-0.454 -0.086,-0.428 -0.397,-0.609 -0.747,-0.735 -0.464,-0.167 -0.943,-0.295 -1.443,-0.448 -0.08,0.236 -0.152,0.45 -0.25,0.739 1.393,0.986 2.779,1.967 4.178,2.957 -0.245,0.735 -0.473,1.421 -0.736,2.213 -0.719,-0.661 -1.668,-0.917 -2.016,-1.885 -0.071,-0.197 -0.295,-0.379 -0.493,-0.481 -0.487,-0.25 -1,-0.45 -1.498,-0.668 -0.425,0.668 -0.432,0.767 0.106,1.188 0.868,0.68 1.742,1.354 2.642,1.989 0.987,0.696 1.003,0.676 0.626,1.818 -0.024,0.073 -0.078,0.135 -0.14,0.238 -0.791,-0.237 -1.351,-0.848 -1.998,-1.314 -0.655,-0.471 -1.28,-0.985 -1.921,-1.482 -1.619,2.762 0.039,8.324 2.914,9.732 -0.254,-0.379 -0.493,-0.719 -0.715,-1.069 -0.81,-1.279 -0.903,-2.661 -0.551,-4.095 0.133,-0.543 0.372,-0.656 0.857,-0.394 0.685,0.37 0.996,0.843 0.806,1.584 -0.624,2.442 0.486,4.274 2.205,5.854 0.042,0.039 0.135,0.025 0.196,0.034 -0.386,-0.657 -0.802,-1.283 -1.134,-1.95 -0.555,-1.115 -0.709,-2.302 -0.44,-3.527 0.122,-0.557 0.39,-0.677 0.908,-0.433 0.142,0.068 0.275,0.155 0.408,0.241 0.463,0.3 0.685,0.705 0.559,1.269 -0.174,0.779 -0.21,1.561 -0.028,2.344 0.353,1.512 1.339,2.502 2.655,3.222 -0.876,-0.814 -1.525,-1.755 -1.793,-2.943 -0.167,-0.734 -0.157,-1.459 -0.012,-2.188 0.095,-0.478 0.294,-0.616 0.769,-0.571 0.809,0.076 1.299,0.637 1.179,1.423 -0.263,1.719 0.394,3.087 1.595,4.239 0.372,0.356 0.721,0.776 1.197,0.88 -0.381,-0.447 -0.846,-0.905 -1.208,-1.435 -0.677,-0.991 -0.93,-2.102 -0.727,-3.301 0.081,-0.48 0.186,-0.577 0.648,-0.62 0.602,-0.056 1.077,0.241 1.484,0.61 0.161,0.146 0.201,0.471 0.219,0.72 0.045,0.601 -0.008,1.213 0.072,1.807 0.148,1.095 0.534,2.094 1.496,2.754 0.315,0.216 0.671,0.375 1.057,0.479 -0.12,-0.132 -0.231,-0.274 -0.363,-0.394 -0.608,-0.55 -0.935,-1.251 -1.142,-2.028 -0.241,-0.904 -0.282,-1.818 -0.16,-2.737 0.101,-0.754 0.859,-1.252 1.633,-1.111 0.603,0.11 1.053,0.853 0.89,1.538 -0.108,0.458 -0.308,0.872 -0.611,1.261 -0.281,0.36 -0.48,0.814 -0.606,1.257 -0.159,0.559 0.113,0.868 0.688,0.848 0.485,-0.017 0.973,-0.075 1.359,-0.425 -0.393,0.076 -0.784,0.169 -1.18,0.223 -0.598,0.081 -0.689,-0.025 -0.657,-0.705 0.563,0.083 1.088,-0.054 1.597,-0.282 0.739,-0.332 1.473,-0.676 2.219,-0.993 0.505,-0.214 1.014,-0.432 1.542,-0.57 0.681,-0.178 0.98,0.028 1.132,0.707 0.074,0.329 0.118,0.67 0.128,1.007 0.005,0.167 -0.049,0.383 -0.158,0.501 -0.72,0.773 -1.506,1.454 -2.602,1.638 -0.138,0.023 -0.268,0.089 -0.401,0.138 0.514,0.186 0.974,-0.039 1.39,-0.269 1.336,-0.739 2.408,-1.761 3.135,-3.118 0.81,-1.51 1.325,-3.137 1.888,-4.746 1.11,-3.167 2.241,-6.325 3.36,-9.488 1.032,-2.914 2.056,-5.83 3.089,-8.744 C 1.187,30.185 1.599,29.052 2.019,27.922 2.204,27.425 2.338,26.925 2.317,26.39 2.258,24.895 2.28,23.393 2.128,21.908 1.928,19.94 1.645,19.787 -0.21,19.435 -0.921,19.3 -1.667,19.357 -2.499,19.323 c 1.067,3.048 0.907,5.988 -0.059,8.948 0.979,0.195 1.918,0.159 2.903,0.151 -0.054,0.723 -0.446,1.327 -0.643,1.988 -0.025,0.086 -0.265,0.149 -0.406,0.151 -0.656,0.009 -1.313,-0.006 -1.97,-0.014 -0.232,-0.002 -0.464,-0.006 -0.716,-0.009 -0.093,0.278 -0.174,0.521 -0.275,0.823 0.967,0.202 1.929,0.086 2.946,0.15 -0.248,0.735 -0.466,1.431 -0.731,2.11 -0.044,0.111 -0.292,0.198 -0.448,0.201 -0.656,0.017 -1.312,0.003 -1.968,-0.011 -0.708,-0.015 -0.708,-0.02 -0.862,0.862 0.917,0.032 1.824,0.063 2.818,0.097 -0.113,0.347 -0.215,0.684 -0.331,1.017 -0.12,0.343 -0.254,0.682 -0.405,1.087 -0.956,0.009 -1.92,0.018 -2.93,0.028 -0.074,0.271 -0.148,0.541 -0.246,0.897 0.944,0.01 1.83,0.018 2.819,0.028 -0.268,0.755 -0.518,1.459 -0.782,2.205 -0.728,0.013 -1.434,0.027 -2.139,0.038 -0.767,0.011 -0.767,0.009 -0.9,0.921 0.861,-10e-4 1.713,-10e-4 2.668,-0.002 -0.273,0.766 -0.525,1.472 -0.8,2.244 -0.889,-0.01 -1.773,-0.02 -2.687,-0.03 -0.079,0.252 -0.156,0.495 -0.262,0.83 0.849,0.047 1.648,0.09 2.493,0.137 -0.017,0.628 -0.3,1.159 -0.555,1.684 -0.063,0.128 -0.354,0.197 -0.542,0.201 -0.655,0.015 -1.311,-0.011 -2.017,-0.022 -0.1,0.257 -0.198,0.511 -0.316,0.817 0.816,0.228 1.609,0.023 2.454,0.191 -0.219,0.617 -0.424,1.193 -0.638,1.792 -0.623,0.014 -1.225,0.028 -1.827,0.041 -0.703,0.016 -0.703,0.016 -0.839,0.91 0.731,-0.002 1.45,-0.004 2.197,-0.006 -0.001,0.093 0.014,0.165 -0.003,0.227 -0.316,1.135 -0.317,1.13 -1.482,1.157 -2.339,0.056 -4.67,0.002 -6.969,-0.504 -2.111,-0.465 -4.134,-1.171 -6.048,-2.183 -0.718,-0.379 -1.443,-0.744 -2.224,-1.146 0.154,-0.513 0.295,-0.98 0.461,-1.533 0.777,0.426 1.511,0.86 2.273,1.239 0.775,0.385 1.565,0.748 2.371,1.063 0.78,0.304 1.581,0.56 2.387,0.787 0.826,0.233 1.67,0.405 2.563,0.617 0.111,-0.34 0.197,-0.605 0.284,-0.873 -1.068,-0.273 -2.109,-0.503 -3.127,-0.807 -2.098,-0.627 -4.083,-1.516 -5.942,-2.678 -0.475,-0.297 -0.474,-0.299 -0.304,-0.803 0.174,-0.518 0.35,-1.036 0.551,-1.632 0.422,0.19 0.81,0.33 1.165,0.528 1.978,1.107 4.057,1.972 6.231,2.607 0.578,0.169 1.161,0.325 1.746,0.466 0.499,0.121 0.56,0.076 0.723,-0.437 0.031,-0.096 0.031,-0.203 0.051,-0.344 -3.397,-0.725 -6.563,-1.995 -9.593,-3.735 0.247,-0.707 0.3,-1.447 0.812,-2.063 0.545,0.258 1.072,0.482 1.577,0.749 2.284,1.209 4.697,2.077 7.182,2.759 0.076,0.02 0.157,0.019 0.234,0.037 0.662,0.15 0.671,0.143 0.82,-0.691 -3.121,-0.716 -6.064,-1.915 -8.939,-3.475 0.405,-0.613 0.774,-1.172 1.196,-1.81 0.271,0.134 0.588,0.293 0.908,0.446 0.307,0.147 0.622,0.28 0.928,0.431 1.936,0.953 3.944,1.706 6.049,2.192 0.729,0.168 0.753,0.142 0.91,-0.767 -2.955,-0.636 -5.726,-1.77 -8.388,-3.202 0.174,-0.777 0.338,-1.506 0.512,-2.278 1.43,0.614 2.837,1.235 4.258,1.822 1.43,0.592 2.913,1.015 4.484,1.344 0.099,-0.293 0.186,-0.554 0.284,-0.846 -1.003,-0.287 -1.979,-0.552 -2.945,-0.846 -1.584,-0.482 -3.111,-1.111 -4.593,-1.85 -0.399,-0.199 -0.807,-0.382 -1.213,-0.568 -0.232,-0.107 -0.379,-0.27 -0.403,-0.536 -0.009,-0.103 -0.026,-0.219 -0.078,-0.304 -0.434,-0.696 -0.092,-1.292 0.229,-1.976 3.11,1.601 6.291,2.923 9.765,3.703 0.102,-0.288 0.192,-0.542 0.269,-0.759 -1.72,-0.579 -3.386,-1.105 -5.027,-1.701 -1.625,-0.591 -3.183,-1.339 -4.747,-2.183 0.246,-0.74 0.482,-1.449 0.731,-2.202 3.178,1.469 6.338,2.861 9.819,3.587 0.089,-0.32 0.163,-0.585 0.247,-0.886 -3.399,-0.795 -6.576,-2.057 -9.699,-3.597 0.132,-0.858 0.493,-1.616 0.737,-2.433 0.302,-0.044 0.552,0.095 0.809,0.216 3.163,1.487 6.418,2.724 9.808,3.588 0.458,0.117 0.923,0.204 1.385,0.301 0.048,0.01 0.102,-0.011 0.211,-0.026 0.04,-0.147 0.109,-0.312 0.127,-0.483 0.112,-1.069 0.224,-2.138 0.311,-3.21 0.03,-0.364 0.012,-0.737 -0.025,-1.101 -0.069,-0.686 -0.414,-0.926 -1.076,-0.766 -0.352,0.085 -0.698,0.196 -1.09,0.308 -0.146,-0.843 0.376,-1.389 0.724,-2.154 -0.337,0.25 -0.589,0.402 -0.8,0.599 -0.776,0.725 -1.395,1.57 -1.847,2.531 -0.19,0.404 -0.447,0.703 -0.912,0.784 -0.697,0.121 -1.148,-0.302 -1.008,-0.986 0.057,-0.28 0.162,-0.558 0.293,-0.812 1.311,-2.543 3.37,-4.107 6.175,-4.678 0.528,-0.108 1.065,-0.178 1.613,-0.268 -0.719,-0.697 -1.544,-0.828 -2.483,-0.663 -2.244,0.394 -4.094,1.469 -5.531,3.211 -0.648,0.785 -1.17,1.676 -1.726,2.534 -0.371,0.572 -0.521,0.646 -1.058,0.386 -0.655,-0.318 -0.849,-0.672 -0.577,-1.241 0.26,-0.544 0.568,-1.074 0.92,-1.562 1.181,-1.634 2.688,-2.885 4.597,-3.557 0.884,-0.311 1.836,-0.433 2.758,-0.633 0.141,-0.03 0.291,-0.02 0.569,-0.037 -0.569,-0.537 -1.09,-0.789 -1.774,-0.71 -2.28,0.264 -4.194,1.264 -5.846,2.826 -0.991,0.937 -1.662,2.093 -2.319,3.263 -0.377,0.669 -0.764,0.772 -1.388,0.372 -0.38,-0.244 -0.515,-0.503 -0.322,-0.932 0.267,-0.595 0.563,-1.192 0.942,-1.72 1.829,-2.552 4.372,-3.937 7.437,-4.429 0.076,-0.012 0.155,-0.007 0.355,-0.014 -0.709,-0.494 -1.323,-0.671 -2.039,-0.441 m -2.408,40.669 c -0.653,0.311 -1.306,0.623 -1.96,0.934 0.735,-0.14 1.379,-0.471 1.96,-0.934 m 1.551,0.687 c -0.537,0.518 -1.179,0.86 -1.852,1.158 -0.206,0.092 -0.399,0.214 -0.597,0.322 1.069,-0.146 1.917,-0.719 2.67,-1.44 0.263,-0.25 0.423,-0.593 0.346,-0.993 -0.076,-0.392 -0.268,-0.565 -0.648,-0.474 -0.519,0.123 -1.035,0.28 -1.411,0.702 0.277,-0.104 0.554,-0.208 0.83,-0.312 0.172,-0.064 0.338,-0.151 0.515,-0.19 0.319,-0.072 0.508,0.081 0.524,0.4 0.018,0.341 -0.14,0.598 -0.377,0.827 m -2.578,1.928 c 0.173,0.05 0.371,0.014 0.56,0.009 -0.105,-0.052 -0.207,-0.126 -0.316,-0.138 -0.273,-0.031 -0.16,-0.181 -0.122,-0.315 -0.132,0.042 -0.264,0.084 -0.396,0.126 0.09,0.111 0.162,0.286 0.274,0.318 m 6.754,-1.744 c 1.019,-0.955 1.84,-2.063 2.44,-3.332 0.379,-0.801 0.782,-1.59 1.21,-2.456 -0.535,-0.091 -0.934,0.111 -1.339,0.22 -0.081,0.022 -0.145,0.204 -0.17,0.323 -0.364,1.77 -1.351,3.215 -2.414,4.618 -0.402,0.531 -0.836,1.039 -1.289,1.599 0.651,-0.189 1.128,-0.565 1.562,-0.972 m 4.356,-7.18 c 0.392,-0.188 0.299,-0.572 0.485,-0.935 -0.81,0.211 -1.54,0.395 -2.265,0.597 -0.107,0.031 -0.228,0.13 -0.277,0.229 -0.099,0.205 -0.154,0.431 -0.253,0.724 0.853,-0.079 1.596,-0.275 2.31,-0.615 m 1.469,-3.776 c -0.855,0.24 -1.611,0.425 -2.348,0.67 -0.369,0.123 -0.347,0.512 -0.44,0.89 0.889,0.007 1.656,-0.207 2.315,-0.684 0.218,-0.158 0.289,-0.519 0.473,-0.876 m 0.759,-2.503 c -0.725,0.165 -1.457,0.331 -2.224,0.505 -0.079,0.235 -0.168,0.498 -0.28,0.832 0.796,-0.026 1.477,-0.225 2.122,-0.564 0.354,-0.187 0.331,-0.541 0.382,-0.773 m 1.052,-3.152 c -0.645,0.187 -1.302,0.351 -1.94,0.571 -0.37,0.128 -0.41,0.493 -0.468,0.969 0.455,-0.084 0.817,-0.138 1.172,-0.22 0.682,-0.157 1.227,-0.463 1.236,-1.32 m 0.043,-1.74 C 2.335,37.383 2.806,37.093 2.775,36.349 2.236,36.5 1.738,36.696 1.223,36.767 0.585,36.855 0.336,37.205 0.291,37.866 0.805,37.839 1.28,37.73 1.749,37.576 M 3.854,33.275 C 3.662,33.317 3.471,33.346 3.288,33.4 2.838,33.533 2.399,33.746 1.941,33.801 1.303,33.878 1.105,34.231 1.103,34.918 1.73,34.746 2.279,34.591 2.829,34.445 3.408,34.292 3.801,33.971 3.854,33.275 M 4.584,30.93 C 4.802,30.78 4.867,30.41 5.072,30.002 4.155,30.26 3.429,30.477 2.694,30.662 2.437,30.727 2.263,30.819 2.22,31.096 2.195,31.25 2.147,31.399 2.094,31.615 3.019,31.658 3.854,31.437 4.584,30.93 M 5.589,22.087 C 5.481,21.483 5.247,20.928 4.842,20.46 4.714,20.312 4.544,20.199 4.393,20.071 c 0.919,1.887 0.706,3.81 0.368,5.74 -0.086,0.488 -0.202,0.971 -0.318,1.524 0.285,0.023 0.529,0.043 0.825,0.066 0.394,-1.783 0.64,-3.53 0.321,-5.314 m -2.213,5.091 c 0.046,0.023 0.092,0.046 0.138,0.069 0.093,-0.092 0.245,-0.17 0.27,-0.278 0.248,-1.066 0.478,-2.137 0.371,-3.263 -0.112,0.59 -0.209,1.183 -0.34,1.769 -0.128,0.572 -0.291,1.136 -0.439,1.703 M 4.87,11.74 C 5.102,11.376 5.439,11.044 5.401,10.554 5.188,10.912 5.004,11.293 4.752,11.622 4.551,11.885 4.289,12.118 4.011,12.298 3.866,12.392 3.582,12.421 3.444,12.339 3.309,12.258 3.184,11.976 3.221,11.824 3.344,11.324 3.477,10.804 3.733,10.366 3.962,9.974 4.322,9.629 4.693,9.359 5.155,9.021 5.49,9.23 5.495,9.815 5.498,10.069 5.436,10.323 5.403,10.578 5.892,9.72 5.965,8.784 5.833,7.842 5.715,6.999 5.154,6.687 4.345,6.951 4.05,7.047 3.748,7.18 3.505,7.368 2.057,8.492 1.176,9.969 0.881,11.779 0.832,12.082 0.858,12.411 0.916,12.716 1.067,13.518 1.563,13.805 2.351,13.611 3.455,13.338 4.273,12.68 4.87,11.74 m 5.359,-27.598 C 7.26,-10.89 4.291,-5.923 1.322,-0.956 1.295,-0.911 1.267,-0.865 1.244,-0.818 1.221,-0.771 1.201,-0.722 1.185,-0.673 1.177,-0.649 1.178,-0.62 1.182,-0.595 c 0.003,0.025 0.015,0.048 0.026,0.081 0.66,0.283 1.326,0.569 1.97,0.846 C 3.232,0.302 3.259,0.294 3.274,0.277 3.309,0.238 3.339,0.194 3.369,0.151 3.385,0.13 3.398,0.107 3.412,0.085 3.439,0.04 3.467,-0.005 3.494,-0.05 c 3.17,-5.303 6.341,-10.605 9.512,-15.908 0.273,-0.024 0.513,-0.034 0.677,-0.01 -0.099,-0.015 -0.882,-0.465 0.097,0.022 C 10.622,-10.664 7.464,-5.382 4.305,-0.1 4.17,0.126 4.021,0.347 3.921,0.588 3.888,0.667 3.961,0.849 4.039,0.898 4.112,0.945 4.307,0.918 4.36,0.852 4.524,0.649 4.647,0.413 4.782,0.187 c 3.152,-5.27 6.304,-10.541 9.455,-15.811 0.326,0.243 0.65,0.489 0.986,0.722 0.223,0.155 1.538,1.183 0.564,0.369 0.206,0.172 0.428,0.314 0.647,0.462 L 6.387,2.73 C 6.279,2.911 6.177,3.095 6.062,3.272 5.927,3.479 5.895,3.672 5.956,3.934 6.142,4.734 5.693,5.441 4.871,5.687 4.656,5.752 4.471,5.806 4.456,6.163 4.702,6.27 4.972,6.421 5.261,6.506 5.737,6.646 6.056,6.96 6.169,7.407 6.283,7.856 6.365,8.347 6.302,8.798 6.221,9.386 5.991,9.954 5.811,10.526 c -0.117,0.373 -0.327,0.729 -0.38,1.108 -0.333,2.389 -0.627,4.784 -0.955,7.173 -0.05,0.36 0.023,0.559 0.322,0.789 0.364,0.281 0.682,0.651 0.938,1.036 0.475,0.716 0.647,1.544 0.734,2.389 0.138,1.351 -0.065,2.668 -0.398,3.971 -0.058,0.228 -0.094,0.482 -0.223,0.666 -0.136,0.194 -0.37,0.32 -0.51,0.435 0.087,0.296 0.221,0.54 0.22,0.785 -0.004,0.74 -0.097,1.482 -0.538,2.102 -0.197,0.277 -0.249,0.553 -0.292,0.867 -0.122,0.889 -0.32,1.765 -0.872,2.498 -0.164,0.218 -0.25,0.408 -0.272,0.682 -0.073,0.901 -0.322,1.748 -0.868,2.496 -0.126,0.171 -0.178,0.419 -0.201,0.639 -0.088,0.825 -0.305,1.606 -0.803,2.274 -0.217,0.292 -0.302,0.595 -0.353,0.937 -0.114,0.758 -0.309,1.486 -0.742,2.139 -0.12,0.182 -0.152,0.435 -0.181,0.66 -0.081,0.632 -0.165,1.292 -0.586,1.769 -0.292,0.33 -0.335,0.669 -0.423,1.044 -0.195,0.828 -0.202,1.741 -0.978,2.334 -0.09,0.069 -0.114,0.23 -0.158,0.353 -0.288,0.816 -0.569,1.634 -0.861,2.449 -0.402,1.121 -0.938,2.169 -1.71,3.086 -1.287,1.529 -2.952,2.417 -4.88,2.834 -2.272,0.49 -4.541,0.347 -6.806,-0.071 -2.229,-0.412 -4.357,-1.148 -6.456,-1.984 -2.066,-0.823 -3.979,-1.893 -5.625,-3.411 -2.655,-2.45 -3.554,-5.418 -2.671,-8.927 0.167,-0.665 0.389,-1.257 1.139,-1.454 0.04,-0.011 0.066,-0.075 0.133,-0.155 -0.545,-0.262 -0.527,-0.682 -0.326,-1.166 0.11,-0.264 0.204,-0.545 0.247,-0.827 0.085,-0.55 0.375,-0.83 0.935,-0.83 0.037,0 0.075,-0.062 0.112,-0.095 -0.576,-0.467 -0.573,-0.467 -0.346,-1.158 0.131,-0.399 0.251,-0.801 0.38,-1.2 0.086,-0.267 0.214,-0.478 0.552,-0.454 0.14,0.009 0.283,-0.028 0.458,-0.048 -0.613,-0.733 -0.613,-0.733 -0.285,-1.669 0.069,-0.198 0.128,-0.399 0.193,-0.598 0.106,-0.322 0.273,-0.55 0.666,-0.55 0.186,0 0.372,-0.096 0.603,-0.16 -0.752,-0.608 -0.753,-0.608 -0.507,-1.462 0.022,-0.075 0.065,-0.146 0.079,-0.223 0.119,-0.673 0.381,-1.203 1.182,-1.214 0.034,0 0.068,-0.067 0.113,-0.115 -0.222,-0.175 -0.443,-0.349 -0.69,-0.543 0.198,-0.595 0.41,-1.159 0.568,-1.738 0.071,-0.257 0.22,-0.337 0.437,-0.375 0.27,-0.048 0.54,-0.09 0.81,-0.134 -0.026,-0.121 -0.019,-0.192 -0.05,-0.219 -0.233,-0.202 -0.619,-0.361 -0.674,-0.599 -0.067,-0.291 0.14,-0.647 0.232,-0.973 0.021,-0.075 0.062,-0.145 0.089,-0.219 0.337,-0.934 0.337,-0.934 1.345,-0.982 0.035,-0.002 0.068,-0.054 0.136,-0.11 -0.279,-0.167 -0.545,-0.326 -0.866,-0.518 0.19,-0.642 0.37,-1.265 0.56,-1.885 0.079,-0.256 0.266,-0.366 0.537,-0.375 0.244,-0.008 0.521,0.048 0.736,-0.218 -0.194,-0.219 -0.349,-0.433 -0.544,-0.6 -0.231,-0.198 -0.276,-0.41 -0.218,-0.699 0.315,-1.573 0.941,-3.014 1.936,-4.263 1.527,-1.916 3.593,-2.837 5.997,-3.081 1.663,-0.169 3.297,0.037 4.923,0.354 0.619,0.12 0.631,0.13 0.932,-0.389 0.673,-1.159 1.331,-2.327 1.996,-3.491 C -7.12,9.079 -7.038,8.947 -6.918,8.747 -7.611,8.335 -7.669,7.736 -7.6,7.119 -7.47,5.951 -6.908,4.983 -6.089,4.165 -5.833,3.909 -5.526,3.688 -5.208,3.514 -4.812,3.297 -4.337,3.412 -3.931,3.322 -3.531,3.232 -3.195,2.839 -2.725,2.81 -2.646,2.806 -2.56,2.828 -2.491,2.802 -2.375,2.76 -2.24,2.713 -2.166,2.624 -1.937,2.346 -1.83,2.076 -2.081,1.706 -2.242,1.467 -2.35,1.09 -2.282,0.826 c 0.091,-0.353 0.324,-0.71 0.593,-0.961 0.181,-0.169 0.533,-0.223 0.803,-0.212 0.399,0.017 0.644,-0.112 0.796,-0.472 0.061,-0.144 0.159,-0.273 0.24,-0.408 2.964,-4.957 5.928,-9.915 8.892,-14.872 0.386,0.098 0.78,0.18 1.187,0.241" /></g><g
           transform="translate(338.0158,689.4811)"
           id="g118"><path
             id="path120"
             style="fill:#bf935b;fill-opacity:1;fill-rule:nonzero;stroke:none"
             d="M 0,0 C 0.064,0.088 0.128,0.177 0.192,0.265 0.217,0.24 0.242,0.215 0.267,0.189 0.178,0.126 0.089,0.063 0,0" /></g><g
           transform="translate(337.7547,709.7672)"
           id="g122"><path
             id="path124"
             style="fill:#bf935b;fill-opacity:1;fill-rule:nonzero;stroke:none"
             d="m 0,0 c 0.005,-0.101 0.011,-0.201 0.014,-0.302 10e-4,-0.025 -0.01,-0.051 -0.026,-0.125 -0.068,0.078 -0.096,0.095 -0.096,0.113 -0.004,0.102 -0.002,0.204 0.005,0.306 C -0.102,-0.003 -0.036,-0.003 0,0" /></g><g
           transform="translate(313.2039,723.6668)"
           id="g126"><path
             id="path128"
             style="fill:#bf935b;fill-opacity:1;fill-rule:nonzero;stroke:none"
             d="M 0,0 C 0.508,-0.922 0.912,-2.023 0.93,-3.228 0.936,-3.641 0.883,-4.07 0.768,-4.466 0.516,-5.335 -0.148,-5.584 -0.945,-5.157 c -0.719,0.385 -1.215,1.007 -1.608,1.682 -0.596,1.026 -0.972,2.14 -1.003,3.347 -0.013,0.5 0.008,0.994 0.239,1.456 0.319,0.634 0.751,0.812 1.425,0.569 0.73,-0.263 1.161,-0.868 1.616,-1.44 C -0.195,0.355 -0.139,0.233 0,0 m -3.692,1.09 c -0.131,-0.548 -0.151,-1.142 -0.109,-1.706 0.105,-1.428 0.733,-2.667 1.565,-3.798 0.355,-0.482 0.81,-0.891 1.393,-1.112 0.723,-0.274 1.384,-0.062 1.732,0.624 0.172,0.341 0.286,0.738 0.316,1.118 0.115,1.43 -0.288,2.741 -0.928,3.798 -0.503,0.868 -0.961,1.535 -1.675,1.973 -1.049,0.645 -2.01,0.294 -2.294,-0.897" /></g><g
           transform="translate(303.2767,733.3143)"
           id="g130"><path
             id="path132"
             style="fill:#bf935b;fill-opacity:1;fill-rule:nonzero;stroke:none"
             d="M 0,0 C -0.011,-0.181 0.003,-0.368 0.031,-0.547 0.092,-0.941 0.337,-1.069 0.704,-0.913 1.133,-0.731 1.253,-0.474 1.116,0.123 0.869,1.2 0.773,2.278 0.936,3.378 0.349,2.317 0.072,1.185 0,0" /></g><g
           transform="translate(336.4116,696.4601)"
           id="g134"><path
             id="path136"
             style="fill:#bf935b;fill-opacity:1;fill-rule:nonzero;stroke:none"
             d="m 0,0 c -0.41,-0.256 -0.409,-0.256 -0.012,-0.499 0.005,-0.003 -0.023,-0.049 -0.023,-0.075 -0.002,-0.109 -0.045,-0.267 0.01,-0.322 0.414,-0.402 0.847,-0.793 1.442,-0.902 0.27,-0.05 0.565,-0.139 0.787,0.182 C 1.357,-1.271 0.727,-0.698 0.22,0.078 0.098,0.036 0.043,0.027 0,0" /></g><g
           transform="translate(335.3799,697.4175)"
           id="g138"><path
             id="path140"
             style="fill:#bf935b;fill-opacity:1;fill-rule:nonzero;stroke:none"
             d="M 0,0 C 0.291,0.165 0.619,0.189 0.56,0.586 0.479,1.125 0.375,1.66 0.281,2.197 -0.318,1.675 -0.406,1.099 0,0" /></g><g
           transform="translate(336.0826,696.7448)"
           id="g142"><path
             id="path144"
             style="fill:#bf935b;fill-opacity:1;fill-rule:nonzero;stroke:none"
             d="M 0,0 C 0.151,0.084 0.372,0.186 0.197,0.395 0.12,0.488 -0.086,0.472 -0.324,0.526 -0.384,0.287 -0.491,0.109 -0.443,-0.002 -0.332,-0.258 -0.144,-0.081 0,0" /></g><g
           transform="translate(335.9778,697.6086)"
           id="g146"><path
             id="path148"
             style="fill:#bf935b;fill-opacity:1;fill-rule:nonzero;stroke:none"
             d="m 0,0 c -0.198,-0.118 -0.396,-0.237 -0.594,-0.355 0.019,-0.032 0.038,-0.064 0.058,-0.096 0.198,0.119 0.396,0.237 0.594,0.355 C 0.039,-0.064 0.019,-0.032 0,0" /></g><g
           transform="translate(439.7785,504.6997)"
           id="g150"><path
             id="path152"
             style="fill:#bf935b;fill-opacity:1;fill-rule:nonzero;stroke:none"
             d="m 0,0 c 0.549,-0.595 0.749,-0.731 0.837,-0.919 2.85,-6.053 6.248,-8.158 11.672,-7.213 5.262,0.916 9.58,5.648 10.176,11.151 1.131,10.444 -5.967,18.336 -16.466,18.391 -6.272,0.033 -11.965,-1.778 -17.19,-5.15 -3.038,-1.96 -6.022,-4.004 -9.03,-6.01 0.128,-0.215 0.257,-0.43 0.386,-0.644 3.538,1.992 6.98,4.191 10.644,5.917 3.493,1.645 7.121,3.216 10.861,4.083 9.016,2.092 17.178,-3.76 18.495,-12.86 C 21.002,2.477 18.727,-1.607 14.606,-3.625 10.321,-5.723 5.864,-5.269 3.143,-2.423 2.794,-2.058 2.587,-1.558 2.623,-0.757 3.484,-1.202 4.446,-1.521 5.19,-2.114 9.667,-5.682 17.894,-2.742 18.447,4.863 18.895,11.038 15.4,15.671 9.375,17.235 4.987,18.374 0.803,17.71 -3.37,15.867 c 2.751,0 5.508,0.114 8.253,-0.023 5.975,-0.298 10.106,-3.847 10.532,-8.886 0.25,-2.957 -0.722,-4.644 -3.713,-6.029 0.208,0.609 0.274,1.021 0.472,1.355 2.877,4.841 1.535,8.822 -3.747,10.942 -4.329,1.737 -8.806,1.652 -13.18,0.453 -7.46,-2.044 -14.308,-5.483 -20.68,-9.858 -0.26,-0.179 -0.404,-0.526 -0.739,-0.98 1.108,-0.471 2.129,-0.929 3.167,-1.342 7.001,-2.785 11.237,-9.684 10.526,-17.158 -0.477,-5.014 -5.045,-9.315 -10.452,-9.763 -1.369,-0.114 -2.766,-0.135 -4.131,-0.002 -4.188,0.407 -6.819,3.826 -6.19,7.92 0.614,3.998 4.039,6.55 7.878,5.871 2.726,-0.484 5.012,-3.625 4.098,-6.109 -0.343,-0.932 -1.702,-1.691 -2.762,-2.058 -0.421,-0.147 -1.285,0.983 -1.948,1.532 0.826,0.882 1.652,1.763 2.762,2.949 -0.792,1.492 -2.364,2.441 -4.482,2.086 -2.104,-0.352 -3.524,-1.703 -3.864,-3.865 -0.371,-2.355 0.48,-4.295 2.463,-5.649 5.045,-3.447 12.762,0.162 13.799,6.382 1.916,11.496 -10.269,19.953 -18.952,15.965 -6.352,-2.916 -13.098,-4.837 -20.123,-5.561 -6.459,-0.667 -12.848,-0.231 -19.121,1.376 -1.798,0.46 -3.441,1.523 -5.155,2.31 0.088,0.305 0.176,0.61 0.264,0.915 1.22,-0.202 2.48,-0.272 3.655,-0.626 13.015,-3.924 25.287,-1.642 36.709,5.043 9.588,5.612 18.782,11.896 28.145,17.892 6.382,4.086 13.288,6.282 20.9,5.266 C 19.516,25.08 25.258,20.265 28.189,12.258 31.025,4.509 29.498,-2.468 23.672,-8.291 17.758,-14.2 9.66,-14.426 3.526,-9.182 0.786,-6.84 -0.405,-3.961 0,0" /></g><g
           transform="translate(141.4181,504.6997)"
           id="g154"><path
             id="path156"
             style="fill:#bf935b;fill-opacity:1;fill-rule:nonzero;stroke:none"
             d="m 0,0 c -0.549,-0.595 -0.749,-0.731 -0.837,-0.919 -2.85,-6.053 -6.248,-8.158 -11.672,-7.213 -5.262,0.916 -9.58,5.648 -10.176,11.151 -1.131,10.444 5.967,18.336 16.466,18.391 6.272,0.033 11.965,-1.778 17.19,-5.15 3.038,-1.96 6.022,-4.004 9.03,-6.01 -0.128,-0.215 -0.257,-0.43 -0.386,-0.644 -3.538,1.992 -6.98,4.191 -10.644,5.917 -3.493,1.645 -7.121,3.216 -10.861,4.083 -9.016,2.092 -17.178,-3.76 -18.495,-12.86 -0.617,-4.269 1.658,-8.353 5.779,-10.371 4.285,-2.098 8.742,-1.644 11.463,1.202 0.349,0.365 0.556,0.865 0.52,1.666 -0.861,-0.445 -1.823,-0.764 -2.567,-1.357 -4.477,-3.568 -12.704,-0.628 -13.257,6.977 -0.448,6.175 3.047,10.808 9.072,12.372 4.388,1.139 8.572,0.475 12.745,-1.368 -2.751,0 -5.508,0.114 -8.253,-0.023 -5.975,-0.298 -10.106,-3.847 -10.532,-8.886 -0.25,-2.957 0.722,-4.644 3.713,-6.029 -0.208,0.609 -0.274,1.021 -0.472,1.355 -2.877,4.841 -1.535,8.822 3.747,10.942 4.329,1.737 8.806,1.652 13.18,0.453 7.46,-2.044 14.308,-5.483 20.68,-9.858 0.26,-0.179 0.404,-0.526 0.739,-0.98 C 25.064,2.37 24.043,1.912 23.005,1.499 16.004,-1.286 11.768,-8.185 12.479,-15.659 c 0.477,-5.014 5.045,-9.315 10.452,-9.763 1.369,-0.114 2.766,-0.135 4.131,-0.002 4.188,0.407 6.819,3.826 6.19,7.92 -0.614,3.998 -4.039,6.55 -7.878,5.871 -2.726,-0.484 -5.012,-3.625 -4.098,-6.109 0.343,-0.932 1.702,-1.691 2.762,-2.058 0.421,-0.147 1.285,0.983 1.948,1.532 -0.826,0.882 -1.652,1.763 -2.762,2.949 0.792,1.492 2.364,2.441 4.482,2.086 2.104,-0.352 3.524,-1.703 3.864,-3.865 0.371,-2.355 -0.48,-4.295 -2.463,-5.649 -5.045,-3.447 -12.762,0.162 -13.799,6.382 -1.916,11.496 10.269,19.953 18.952,15.965 6.352,-2.916 13.098,-4.837 20.123,-5.561 6.459,-0.667 12.848,-0.231 19.121,1.376 1.798,0.46 3.441,1.523 5.155,2.31 -0.088,0.305 -0.176,0.61 -0.264,0.915 -1.22,-0.202 -2.48,-0.272 -3.655,-0.626 C 61.725,-5.91 49.453,-3.628 38.031,3.057 28.443,8.669 19.249,14.953 9.886,20.949 c -6.382,4.086 -13.288,6.282 -20.9,5.266 -8.502,-1.135 -14.244,-5.95 -17.175,-13.957 -2.836,-7.749 -1.309,-14.726 4.517,-20.549 5.914,-5.909 14.012,-6.135 20.146,-0.891 C -0.786,-6.84 0.405,-3.961 0,0" /></g><g
           transform="translate(269.359,726.2455)"
           id="g158"><path
             id="path160"
             style="fill:#bf935b;fill-opacity:1;fill-rule:nonzero;stroke:none"
             d="m 0,0 c -2.274,-2.653 -3.568,-4.179 -4.302,-5.06 l -19.945,5.403 9.53,-18.777 17.705,11.4 -6.052,1.639 c 0.987,1.166 2.523,2.961 4.32,5.055 L 13.226,-3.582 -15.747,-22.24 -31.343,8.489 Z m 20.202,-4.67 c 0.781,0.502 1.191,1.416 1.048,2.332 -0.141,0.915 -0.809,1.662 -1.704,1.904 l -14.9,4.036 c 1.213,1.41 2.46,2.857 3.68,4.273 0.448,-0.318 0.948,-0.576 1.509,-0.728 2.555,-0.692 5.187,0.818 5.879,3.372 0.455,1.68 -0.055,3.381 -1.175,4.554 0.37,0.428 0.716,0.829 1.03,1.193 0.213,0.245 0.186,0.615 -0.059,0.827 -0.246,0.211 -0.615,0.186 -0.827,-0.06 -0.363,-0.42 -0.706,-0.817 -1.056,-1.222 -0.393,0.247 -0.815,0.459 -1.286,0.587 C 9.786,17.09 7.154,15.58 6.463,13.025 6.032,11.437 6.455,9.82 7.449,8.657 5.92,6.885 4.57,5.317 3.387,3.943 L -35.21,14.397 c -0.895,0.243 -1.849,-0.065 -2.433,-0.784 -0.585,-0.719 -0.692,-1.715 -0.272,-2.542 l 18.753,-36.947 -6.392,-23.598 -8.216,2.226 c -1.251,0.338 -2.539,-0.401 -2.878,-1.651 -0.338,-1.251 0.401,-2.539 1.651,-2.878 l 20.961,-5.677 c 1.251,-0.339 2.539,0.401 2.878,1.651 0.338,1.25 -0.401,2.539 -1.651,2.877 l -8.217,2.226 6.392,23.598 z" /></g></g></g></g></svg>